<svg class="main-svg" xmlns="http://www.w3.org/2000/svg" xmlns:xlink="http://www.w3.org/1999/xlink" width="700" height="500" style="" viewBox="0 0 700 500"><rect x="0" y="0" width="700" height="500" style="fill: none; fill-opacity: none;"/><defs id="defs-d64d64"><g class="clips"/><g class="gradients"/><g class="patterns"/></defs><g class="bglayer"/><g class="layer-below"><g class="imagelayer"/><g class="shapelayer"/></g><g class="cartesianlayer"/><g class="polarlayer"/><g class="smithlayer"/><g class="ternarylayer"/><g class="geolayer"/><g class="funnelarealayer"/><g class="pielayer"><g class="trace" stroke-linejoin="round" style="opacity: 1;"><g class="slice"><path class="surface" d="M102.14,124.32000000000001l0,-22.14a22.14,22.14 0 0 1 13.013565485755358,40.05163625546133Z" style="pointer-events: none; fill: rgb(255, 0, 235); fill-opacity: 1; stroke-width: 1; stroke: rgb(0, 0, 0); stroke-opacity: 1;"/></g><g class="slice"><path class="surface" d="M102.14,124.32000000000001l-21.0563912707747,-6.841636255461337a22.14,22.14 0 0 1 21.0563912707747,-15.298363744538664Z" style="pointer-events: none; fill: rgb(98, 255, 0); fill-opacity: 1; stroke-width: 1; stroke: rgb(0, 0, 0); stroke-opacity: 1;"/></g><g class="slice"><path class="surface" d="M102.14,124.32000000000001l-13.013565485755358,17.911636255461335a22.14,22.14 0 0 1 -8.042825785019343,-24.75327251092267Z" style="pointer-events: none; fill: rgb(98, 0, 255); fill-opacity: 1; stroke-width: 1; stroke: rgb(0, 0, 0); stroke-opacity: 1;"/></g><g class="slice"><path class="surface" d="M102.14,124.32000000000001l13.013565485755354,17.911636255461335a22.14,22.14 0 0 1 -26.02713097151071,0Z" style="pointer-events: none; fill: rgb(0, 255, 19); fill-opacity: 1; stroke-width: 1; stroke: rgb(0, 0, 0); stroke-opacity: 1;"/></g></g><g class="trace" stroke-linejoin="round" style="opacity: 1;"><g class="slice"><path class="surface" d="M157.22000000000003,124.32000000000001l0,-22.139999999999997a22.139999999999997,22.139999999999997 0 0 1 19.17380243978747,33.209999999999994Z" style="pointer-events: none; fill: rgb(255, 235, 0); fill-opacity: 1; stroke-width: 1; stroke: rgb(0, 0, 0); stroke-opacity: 1;"/></g><g class="slice"><path class="surface" d="M157.22000000000003,124.32000000000001l-19.17380243978747,11.069999999999993a22.139999999999997,22.139999999999997 0 0 1 19.17380243978747,-33.209999999999994Z" style="pointer-events: none; fill: rgb(255, 0, 0); fill-opacity: 1; stroke-width: 1; stroke: rgb(0, 0, 0); stroke-opacity: 1;"/></g><g class="slice"><path class="surface" d="M157.22000000000003,124.32000000000001l19.173802439787465,11.07000000000001a22.139999999999997,22.139999999999997 0 0 1 -38.34760487957493,-1.5987211554602254e-14Z" style="pointer-events: none; fill: rgb(39, 255, 0); fill-opacity: 1; stroke-width: 1; stroke: rgb(0, 0, 0); stroke-opacity: 1;"/></g></g><g class="trace" stroke-linejoin="round" style="opacity: 1;"><g class="slice"><path class="surface" d="M212.3,124.32000000000001l0,-22.140000000000004a22.140000000000004,22.140000000000004 0 0 1 2.7113680133122405e-15,44.28000000000001Z" style="pointer-events: none; fill: rgb(0, 196, 255); fill-opacity: 1; stroke-width: 1; stroke: rgb(0, 0, 0); stroke-opacity: 1;"/></g><g class="slice"><path class="surface" d="M212.3,124.32000000000001l-2.7113680133122405e-15,22.140000000000004a22.140000000000004,22.140000000000004 0 0 1 2.7113680133122405e-15,-44.28000000000001Z" style="pointer-events: none; fill: rgb(255, 0, 235); fill-opacity: 1; stroke-width: 1; stroke: rgb(0, 0, 0); stroke-opacity: 1;"/></g></g><g class="trace" stroke-linejoin="round" style="opacity: 1;"><g class="slice"><path class="surface" d="M267.38,124.32000000000001l0,-22.140000000000004a22.140000000000004,22.140000000000004 0 0 1 2.7113680133122405e-15,44.28000000000001Z" style="pointer-events: none; fill: rgb(98, 255, 0); fill-opacity: 1; stroke-width: 1; stroke: rgb(0, 0, 0); stroke-opacity: 1;"/></g><g class="slice"><path class="surface" d="M267.38,124.32000000000001l-22.140000000000004,-1.3556840066561202e-15a22.140000000000004,22.140000000000004 0 0 1 22.140000000000004,-22.140000000000004Z" style="pointer-events: none; fill: rgb(98, 0, 255); fill-opacity: 1; stroke-width: 1; stroke: rgb(0, 0, 0); stroke-opacity: 1;"/></g><g class="slice"><path class="surface" d="M267.38,124.32000000000001l-2.7113680133122405e-15,22.140000000000004a22.140000000000004,22.140000000000004 0 0 1 -22.14,-22.140000000000004Z" style="pointer-events: none; fill: rgb(255, 0, 0); fill-opacity: 1; stroke-width: 1; stroke: rgb(0, 0, 0); stroke-opacity: 1;"/></g></g><g class="trace" stroke-linejoin="round" style="opacity: 1;"><g class="slice"><path class="surface" d="M322.46000000000004,124.32000000000001l0,-22.140000000000004a22.140000000000004,22.140000000000004 0 0 1 2.7113680133122405e-15,44.28000000000001Z" style="pointer-events: none; fill: rgb(39, 0, 255); fill-opacity: 1; stroke-width: 1; stroke: rgb(0, 0, 0); stroke-opacity: 1;"/></g><g class="slice"><path class="surface" d="M322.46000000000004,124.32000000000001l-2.7113680133122405e-15,22.140000000000004a22.140000000000004,22.140000000000004 0 0 1 2.7113680133122405e-15,-44.28000000000001Z" style="pointer-events: none; fill: rgb(39, 255, 0); fill-opacity: 1; stroke-width: 1; stroke: rgb(0, 0, 0); stroke-opacity: 1;"/></g></g><g class="trace" stroke-linejoin="round" style="opacity: 1;"><g class="slice"><path class="surface" d="M377.53999999999996,124.32000000000001l0,-22.13999999999999a22.13999999999999,22.13999999999999 0 0 1 22.13999999999999,22.13999999999999Z" style="pointer-events: none; fill: rgb(255, 0, 0); fill-opacity: 1; stroke-width: 1; stroke: rgb(0, 0, 0); stroke-opacity: 1;"/></g><g class="slice"><path class="surface" d="M377.53999999999996,124.32000000000001l-22.13999999999999,-1.3556840066561194e-15a22.13999999999999,22.13999999999999 0 0 1 22.13999999999999,-22.13999999999999Z" style="pointer-events: none; fill: rgb(0, 137, 255); fill-opacity: 1; stroke-width: 1; stroke: rgb(0, 0, 0); stroke-opacity: 1;"/></g><g class="slice"><path class="surface" d="M377.53999999999996,124.32000000000001l-2.711368013312239e-15,22.13999999999999a22.13999999999999,22.13999999999999 0 0 1 -22.139999999999986,-22.13999999999999Z" style="pointer-events: none; fill: rgb(255, 0, 235); fill-opacity: 1; stroke-width: 1; stroke: rgb(0, 0, 0); stroke-opacity: 1;"/></g><g class="slice"><path class="surface" d="M377.53999999999996,124.32000000000001l22.13999999999999,4.067052019968358e-15a22.13999999999999,22.13999999999999 0 0 1 -22.139999999999993,22.139999999999986Z" style="pointer-events: none; fill: rgb(255, 176, 0); fill-opacity: 1; stroke-width: 1; stroke: rgb(0, 0, 0); stroke-opacity: 1;"/></g></g><g class="trace" stroke-linejoin="round" style="opacity: 1;"><g class="slice"><path class="surface" d="M432.62,124.32000000000001l0,-22.13999999999999a22.13999999999999,22.13999999999999 0 0 1 19.173802439787465,33.20999999999998Z" style="pointer-events: none; fill: rgb(255, 0, 0); fill-opacity: 1; stroke-width: 1; stroke: rgb(0, 0, 0); stroke-opacity: 1;"/></g><g class="slice"><path class="surface" d="M432.62,124.32000000000001l-19.173802439787465,11.06999999999999a22.13999999999999,22.13999999999999 0 0 1 19.173802439787465,-33.20999999999998Z" style="pointer-events: none; fill: rgb(0, 255, 255); fill-opacity: 1; stroke-width: 1; stroke: rgb(0, 0, 0); stroke-opacity: 1;"/></g><g class="slice"><path class="surface" d="M432.62,124.32000000000001l19.17380243978746,11.070000000000006a22.13999999999999,22.13999999999999 0 0 1 -38.347604879574924,-1.5987211554602254e-14Z" style="pointer-events: none; fill: rgb(255, 0, 176); fill-opacity: 1; stroke-width: 1; stroke: rgb(0, 0, 0); stroke-opacity: 1;"/></g></g><g class="trace" stroke-linejoin="round" style="opacity: 1;"><g class="slice"><path class="surface" d="M487.70000000000005,124.32000000000001l0,-22.13999999999999a22.13999999999999,22.13999999999999 0 0 1 2.711368013312239e-15,44.27999999999998Z" style="pointer-events: none; fill: rgb(0, 196, 255); fill-opacity: 1; stroke-width: 1; stroke: rgb(0, 0, 0); stroke-opacity: 1;"/></g><g class="slice"><path class="surface" d="M487.70000000000005,124.32000000000001l-2.711368013312239e-15,22.13999999999999a22.13999999999999,22.13999999999999 0 0 1 2.711368013312239e-15,-44.27999999999998Z" style="pointer-events: none; fill: rgb(255, 117, 0); fill-opacity: 1; stroke-width: 1; stroke: rgb(0, 0, 0); stroke-opacity: 1;"/></g></g><g class="trace" stroke-linejoin="round" style="opacity: 1;"><g class="slice"><path class="surface" d="M542.78,124.32000000000001l0,-22.13999999999999a22.13999999999999,22.13999999999999 0 0 1 13.013565485755352,40.05163625546132Z" style="pointer-events: none; fill: rgb(255, 0, 235); fill-opacity: 1; stroke-width: 1; stroke: rgb(0, 0, 0); stroke-opacity: 1;"/></g><g class="slice"><path class="surface" d="M542.78,124.32000000000001l-21.05639127077469,-6.841636255461333a22.13999999999999,22.13999999999999 0 0 1 21.05639127077469,-15.298363744538657Z" style="pointer-events: none; fill: rgb(98, 255, 0); fill-opacity: 1; stroke-width: 1; stroke: rgb(0, 0, 0); stroke-opacity: 1;"/></g><g class="slice"><path class="surface" d="M542.78,124.32000000000001l-13.013565485755352,17.911636255461325a22.13999999999999,22.13999999999999 0 0 1 -8.042825785019337,-24.753272510922656Z" style="pointer-events: none; fill: rgb(98, 0, 255); fill-opacity: 1; stroke-width: 1; stroke: rgb(0, 0, 0); stroke-opacity: 1;"/></g><g class="slice"><path class="surface" d="M542.78,124.32000000000001l13.013565485755347,17.911636255461328a22.13999999999999,22.13999999999999 0 0 1 -26.0271309715107,-3.552713678800501e-15Z" style="pointer-events: none; fill: rgb(0, 255, 19); fill-opacity: 1; stroke-width: 1; stroke: rgb(0, 0, 0); stroke-opacity: 1;"/></g></g><g class="trace" stroke-linejoin="round" style="opacity: 1;"><g class="slice"><path class="surface" d="M597.8599999999999,124.32000000000001l0,-22.13999999999999a22.13999999999999,22.13999999999999 0 0 1 19.173802439787465,33.20999999999998Z" style="pointer-events: none; fill: rgb(0, 255, 196); fill-opacity: 1; stroke-width: 1; stroke: rgb(0, 0, 0); stroke-opacity: 1;"/></g><g class="slice"><path class="surface" d="M597.8599999999999,124.32000000000001l-19.173802439787462,-11.069999999999997a22.13999999999999,22.13999999999999 0 0 1 19.173802439787462,-11.069999999999993Z" style="pointer-events: none; fill: rgb(255, 0, 176); fill-opacity: 1; stroke-width: 1; stroke: rgb(0, 0, 0); stroke-opacity: 1;"/></g><g class="slice"><path class="surface" d="M597.8599999999999,124.32000000000001l-19.173802439787465,11.06999999999999a22.13999999999999,22.13999999999999 0 0 1 3.552713678800501e-15,-22.139999999999986Z" style="pointer-events: none; fill: rgb(0, 255, 19); fill-opacity: 1; stroke-width: 1; stroke: rgb(0, 0, 0); stroke-opacity: 1;"/></g><g class="slice"><path class="surface" d="M597.8599999999999,124.32000000000001l-1.2543503119392621e-14,22.13999999999999a22.13999999999999,22.13999999999999 0 0 1 -19.17380243978745,-11.07Z" style="pointer-events: none; fill: rgb(156, 0, 255); fill-opacity: 1; stroke-width: 1; stroke: rgb(0, 0, 0); stroke-opacity: 1;"/></g><g class="slice"><path class="surface" d="M597.8599999999999,124.32000000000001l19.17380243978746,11.070000000000006a22.13999999999999,22.13999999999999 0 0 1 -19.173802439787472,11.069999999999984Z" style="pointer-events: none; fill: rgb(39, 255, 0); fill-opacity: 1; stroke-width: 1; stroke: rgb(0, 0, 0); stroke-opacity: 1;"/></g></g><g class="trace" stroke-linejoin="round" style="opacity: 1;"><g class="slice"><path class="surface" d="M102.14,192.16000000000003l0,-22.14a22.14,22.14 0 0 1 2.71136801331224e-15,44.28Z" style="pointer-events: none; fill: rgb(98, 255, 0); fill-opacity: 1; stroke-width: 1; stroke: rgb(0, 0, 0); stroke-opacity: 1;"/></g><g class="slice"><path class="surface" d="M102.14,192.16000000000003l-22.14,-1.35568400665612e-15a22.14,22.14 0 0 1 22.14,-22.14Z" style="pointer-events: none; fill: rgb(98, 0, 255); fill-opacity: 1; stroke-width: 1; stroke: rgb(0, 0, 0); stroke-opacity: 1;"/></g><g class="slice"><path class="surface" d="M102.14,192.16000000000003l-2.71136801331224e-15,22.14a22.14,22.14 0 0 1 -22.139999999999997,-22.14Z" style="pointer-events: none; fill: rgb(255, 0, 0); fill-opacity: 1; stroke-width: 1; stroke: rgb(0, 0, 0); stroke-opacity: 1;"/></g></g><g class="trace" stroke-linejoin="round" style="opacity: 1;"><g class="slice"><path class="surface" d="M157.22000000000003,192.16000000000003l0,-22.139999999999997a22.139999999999997,22.139999999999997 0 0 1 2.7113680133122397e-15,44.279999999999994Z" style="pointer-events: none; fill: rgb(39, 0, 255); fill-opacity: 1; stroke-width: 1; stroke: rgb(0, 0, 0); stroke-opacity: 1;"/></g><g class="slice"><path class="surface" d="M157.22000000000003,192.16000000000003l-2.7113680133122397e-15,22.139999999999997a22.139999999999997,22.139999999999997 0 0 1 2.7113680133122397e-15,-44.279999999999994Z" style="pointer-events: none; fill: rgb(39, 255, 0); fill-opacity: 1; stroke-width: 1; stroke: rgb(0, 0, 0); stroke-opacity: 1;"/></g></g><g class="trace" stroke-linejoin="round" style="opacity: 1;"><g class="slice"><path class="surface" d="M212.3,192.16000000000003l0,-22.140000000000004a22.140000000000004,22.140000000000004 0 0 1 2.7113680133122405e-15,44.28000000000001Z" style="pointer-events: none; fill: rgb(255, 0, 235); fill-opacity: 1; stroke-width: 1; stroke: rgb(0, 0, 0); stroke-opacity: 1;"/></g><g class="slice"><path class="surface" d="M212.3,192.16000000000003l-22.140000000000004,-1.3556840066561202e-15a22.140000000000004,22.140000000000004 0 0 1 22.140000000000004,-22.140000000000004Z" style="pointer-events: none; fill: rgb(0, 255, 137); fill-opacity: 1; stroke-width: 1; stroke: rgb(0, 0, 0); stroke-opacity: 1;"/></g><g class="slice"><path class="surface" d="M212.3,192.16000000000003l-2.7113680133122405e-15,22.140000000000004a22.140000000000004,22.140000000000004 0 0 1 -22.14,-22.140000000000004Z" style="pointer-events: none; fill: rgb(98, 255, 0); fill-opacity: 1; stroke-width: 1; stroke: rgb(0, 0, 0); stroke-opacity: 1;"/></g></g><g class="trace" stroke-linejoin="round" style="opacity: 1;"><g class="slice"><path class="surface" d="M267.38,192.16000000000003l0,-22.140000000000004a22.140000000000004,22.140000000000004 0 0 1 21.58490397570558,27.066613477792806Z" style="pointer-events: none; fill: rgb(156, 0, 255); fill-opacity: 1; stroke-width: 1; stroke: rgb(0, 0, 0); stroke-opacity: 1;"/></g><g class="slice"><path class="surface" d="M267.38,192.16000000000003l-21.58490397570558,4.926613477792801a22.140000000000004,22.140000000000004 0 0 1 21.58490397570558,-27.066613477792806Z" style="pointer-events: none; fill: rgb(255, 0, 235); fill-opacity: 1; stroke-width: 1; stroke: rgb(0, 0, 0); stroke-opacity: 1;"/></g><g class="slice"><path class="surface" d="M267.38,192.16000000000003l-9.60618598406274,19.94745073535956a22.140000000000004,22.140000000000004 0 0 1 -11.978717991642839,-15.02083725756676Z" style="pointer-events: none; fill: rgb(0, 255, 196); fill-opacity: 1; stroke-width: 1; stroke: rgb(0, 0, 0); stroke-opacity: 1;"/></g><g class="slice"><path class="surface" d="M267.38,192.16000000000003l9.606185984062735,19.947450735359563a22.140000000000004,22.140000000000004 0 0 1 -19.212371968125474,-3.552713678800501e-15Z" style="pointer-events: none; fill: rgb(0, 255, 19); fill-opacity: 1; stroke-width: 1; stroke: rgb(0, 0, 0); stroke-opacity: 1;"/></g><g class="slice"><path class="surface" d="M267.38,192.16000000000003l21.58490397570558,4.926613477792806a22.140000000000004,22.140000000000004 0 0 1 -11.978717991642844,15.020837257566757Z" style="pointer-events: none; fill: rgb(39, 0, 255); fill-opacity: 1; stroke-width: 1; stroke: rgb(0, 0, 0); stroke-opacity: 1;"/></g></g><g class="trace" stroke-linejoin="round" style="opacity: 1;"><g class="slice"><path class="surface" d="M322.46000000000004,192.16000000000003l0,-22.140000000000004a22.140000000000004,22.140000000000004 0 0 1 19.173802439787476,33.21Z" style="pointer-events: none; fill: rgb(255, 0, 0); fill-opacity: 1; stroke-width: 1; stroke: rgb(0, 0, 0); stroke-opacity: 1;"/></g><g class="slice"><path class="surface" d="M322.46000000000004,192.16000000000003l-19.173802439787476,11.069999999999997a22.140000000000004,22.140000000000004 0 0 1 19.173802439787476,-33.21Z" style="pointer-events: none; fill: rgb(0, 255, 255); fill-opacity: 1; stroke-width: 1; stroke: rgb(0, 0, 0); stroke-opacity: 1;"/></g><g class="slice"><path class="surface" d="M322.46000000000004,192.16000000000003l19.173802439787472,11.070000000000013a22.140000000000004,22.140000000000004 0 0 1 -38.347604879574945,-1.5987211554602254e-14Z" style="pointer-events: none; fill: rgb(255, 0, 176); fill-opacity: 1; stroke-width: 1; stroke: rgb(0, 0, 0); stroke-opacity: 1;"/></g></g><g class="trace" stroke-linejoin="round" style="opacity: 1;"><g class="slice"><path class="surface" d="M377.53999999999996,192.16000000000003l0,-22.13999999999999a22.13999999999999,22.13999999999999 0 0 1 19.173802439787465,33.20999999999998Z" style="pointer-events: none; fill: rgb(255, 0, 176); fill-opacity: 1; stroke-width: 1; stroke: rgb(0, 0, 0); stroke-opacity: 1;"/></g><g class="slice"><path class="surface" d="M377.53999999999996,192.16000000000003l-19.173802439787465,11.06999999999999a22.13999999999999,22.13999999999999 0 0 1 19.173802439787465,-33.20999999999998Z" style="pointer-events: none; fill: rgb(39, 0, 255); fill-opacity: 1; stroke-width: 1; stroke: rgb(0, 0, 0); stroke-opacity: 1;"/></g><g class="slice"><path class="surface" d="M377.53999999999996,192.16000000000003l19.17380243978746,11.070000000000006a22.13999999999999,22.13999999999999 0 0 1 -38.347604879574924,-1.5987211554602254e-14Z" style="pointer-events: none; fill: rgb(0, 196, 255); fill-opacity: 1; stroke-width: 1; stroke: rgb(0, 0, 0); stroke-opacity: 1;"/></g></g><g class="trace" stroke-linejoin="round" style="opacity: 1;"><g class="slice"><path class="surface" d="M432.62,192.16000000000003l0,-22.13999999999999a22.13999999999999,22.13999999999999 0 0 1 19.173802439787465,33.20999999999998Z" style="pointer-events: none; fill: rgb(255, 0, 176); fill-opacity: 1; stroke-width: 1; stroke: rgb(0, 0, 0); stroke-opacity: 1;"/></g><g class="slice"><path class="surface" d="M432.62,192.16000000000003l-19.173802439787465,11.06999999999999a22.13999999999999,22.13999999999999 0 0 1 19.173802439787465,-33.20999999999998Z" style="pointer-events: none; fill: rgb(39, 0, 255); fill-opacity: 1; stroke-width: 1; stroke: rgb(0, 0, 0); stroke-opacity: 1;"/></g><g class="slice"><path class="surface" d="M432.62,192.16000000000003l19.17380243978746,11.070000000000006a22.13999999999999,22.13999999999999 0 0 1 -38.347604879574924,-1.5987211554602254e-14Z" style="pointer-events: none; fill: rgb(0, 196, 255); fill-opacity: 1; stroke-width: 1; stroke: rgb(0, 0, 0); stroke-opacity: 1;"/></g></g><g class="trace" stroke-linejoin="round" style="opacity: 1;"><g class="slice"><path class="surface" d="M487.70000000000005,192.16000000000003l0,-22.13999999999999a22.13999999999999,22.13999999999999 0 0 1 21.05639127077469,15.298363744538657Z" style="pointer-events: none; fill: rgb(255, 0, 58); fill-opacity: 1; stroke-width: 1; stroke: rgb(0, 0, 0); stroke-opacity: 1;"/></g><g class="slice"><path class="surface" d="M487.70000000000005,192.16000000000003l-21.05639127077469,-6.841636255461333a22.13999999999999,22.13999999999999 0 0 1 21.05639127077469,-15.298363744538657Z" style="pointer-events: none; fill: rgb(255, 0, 235); fill-opacity: 1; stroke-width: 1; stroke: rgb(0, 0, 0); stroke-opacity: 1;"/></g><g class="slice"><path class="surface" d="M487.70000000000005,192.16000000000003l-13.013565485755352,17.911636255461325a22.13999999999999,22.13999999999999 0 0 1 -8.042825785019337,-24.753272510922656Z" style="pointer-events: none; fill: rgb(39, 0, 255); fill-opacity: 1; stroke-width: 1; stroke: rgb(0, 0, 0); stroke-opacity: 1;"/></g><g class="slice"><path class="surface" d="M487.70000000000005,192.16000000000003l13.013565485755347,17.911636255461328a22.13999999999999,22.13999999999999 0 0 1 -26.0271309715107,-3.552713678800501e-15Z" style="pointer-events: none; fill: rgb(0, 255, 255); fill-opacity: 1; stroke-width: 1; stroke: rgb(0, 0, 0); stroke-opacity: 1;"/></g><g class="slice"><path class="surface" d="M487.70000000000005,192.16000000000003l21.056391270774693,-6.841636255461329a22.13999999999999,22.13999999999999 0 0 1 -8.042825785019346,24.753272510922656Z" style="pointer-events: none; fill: rgb(156, 0, 255); fill-opacity: 1; stroke-width: 1; stroke: rgb(0, 0, 0); stroke-opacity: 1;"/></g></g><g class="trace" stroke-linejoin="round" style="opacity: 1;"><g class="slice"><path class="surface" d="M542.78,192.16000000000003l0,-22.13999999999999a22.13999999999999,22.13999999999999 0 0 1 19.173802439787465,33.20999999999998Z" style="pointer-events: none; fill: rgb(0, 137, 255); fill-opacity: 1; stroke-width: 1; stroke: rgb(0, 0, 0); stroke-opacity: 1;"/></g><g class="slice"><path class="surface" d="M542.78,192.16000000000003l-19.173802439787462,-11.069999999999997a22.13999999999999,22.13999999999999 0 0 1 19.173802439787462,-11.069999999999993Z" style="pointer-events: none; fill: rgb(0, 255, 19); fill-opacity: 1; stroke-width: 1; stroke: rgb(0, 0, 0); stroke-opacity: 1;"/></g><g class="slice"><path class="surface" d="M542.78,192.16000000000003l-19.173802439787465,11.06999999999999a22.13999999999999,22.13999999999999 0 0 1 3.552713678800501e-15,-22.139999999999986Z" style="pointer-events: none; fill: rgb(255, 0, 235); fill-opacity: 1; stroke-width: 1; stroke: rgb(0, 0, 0); stroke-opacity: 1;"/></g><g class="slice"><path class="surface" d="M542.78,192.16000000000003l-1.2543503119392621e-14,22.13999999999999a22.13999999999999,22.13999999999999 0 0 1 -19.17380243978745,-11.07Z" style="pointer-events: none; fill: rgb(255, 0, 0); fill-opacity: 1; stroke-width: 1; stroke: rgb(0, 0, 0); stroke-opacity: 1;"/></g><g class="slice"><path class="surface" d="M542.78,192.16000000000003l19.17380243978746,11.070000000000006a22.13999999999999,22.13999999999999 0 0 1 -19.173802439787472,11.069999999999984Z" style="pointer-events: none; fill: rgb(255, 117, 0); fill-opacity: 1; stroke-width: 1; stroke: rgb(0, 0, 0); stroke-opacity: 1;"/></g></g><g class="trace" stroke-linejoin="round" style="opacity: 1;"><g class="slice"><path class="surface" d="M597.8599999999999,192.16000000000003l0,-22.13999999999999a22.13999999999999,22.13999999999999 0 0 1 19.173802439787465,33.20999999999998Z" style="pointer-events: none; fill: rgb(255, 0, 176); fill-opacity: 1; stroke-width: 1; stroke: rgb(0, 0, 0); stroke-opacity: 1;"/></g><g class="slice"><path class="surface" d="M597.8599999999999,192.16000000000003l-19.173802439787465,11.06999999999999a22.13999999999999,22.13999999999999 0 0 1 19.173802439787465,-33.20999999999998Z" style="pointer-events: none; fill: rgb(39, 0, 255); fill-opacity: 1; stroke-width: 1; stroke: rgb(0, 0, 0); stroke-opacity: 1;"/></g><g class="slice"><path class="surface" d="M597.8599999999999,192.16000000000003l19.17380243978746,11.070000000000006a22.13999999999999,22.13999999999999 0 0 1 -38.347604879574924,-1.5987211554602254e-14Z" style="pointer-events: none; fill: rgb(0, 196, 255); fill-opacity: 1; stroke-width: 1; stroke: rgb(0, 0, 0); stroke-opacity: 1;"/></g></g><g class="trace" stroke-linejoin="round" style="opacity: 1;"><g class="slice"><path class="surface" d="M102.14,260.00000000000006l0,-22.14a22.14,22.14 0 0 1 19.173802439787472,33.209999999999994Z" style="pointer-events: none; fill: rgb(255, 0, 0); fill-opacity: 1; stroke-width: 1; stroke: rgb(0, 0, 0); stroke-opacity: 1;"/></g><g class="slice"><path class="surface" d="M102.14,260.00000000000006l-19.173802439787472,11.069999999999995a22.14,22.14 0 0 1 19.173802439787472,-33.209999999999994Z" style="pointer-events: none; fill: rgb(0, 255, 255); fill-opacity: 1; stroke-width: 1; stroke: rgb(0, 0, 0); stroke-opacity: 1;"/></g><g class="slice"><path class="surface" d="M102.14,260.00000000000006l19.17380243978747,11.070000000000011a22.14,22.14 0 0 1 -38.347604879574945,-1.5987211554602254e-14Z" style="pointer-events: none; fill: rgb(255, 0, 176); fill-opacity: 1; stroke-width: 1; stroke: rgb(0, 0, 0); stroke-opacity: 1;"/></g></g><g class="trace" stroke-linejoin="round" style="opacity: 1;"><g class="slice"><path class="surface" d="M157.22000000000003,260.00000000000006l0,-22.139999999999997a22.139999999999997,22.139999999999997 0 0 1 2.7113680133122397e-15,44.279999999999994Z" style="pointer-events: none; fill: rgb(255, 235, 0); fill-opacity: 1; stroke-width: 1; stroke: rgb(0, 0, 0); stroke-opacity: 1;"/></g><g class="slice"><path class="surface" d="M157.22000000000003,260.00000000000006l-2.7113680133122397e-15,22.139999999999997a22.139999999999997,22.139999999999997 0 0 1 2.7113680133122397e-15,-44.279999999999994Z" style="pointer-events: none; fill: rgb(255, 0, 235); fill-opacity: 1; stroke-width: 1; stroke: rgb(0, 0, 0); stroke-opacity: 1;"/></g></g><g class="trace" stroke-linejoin="round" style="opacity: 1;"><g class="slice"><path class="surface" d="M212.3,260.00000000000006l0,-22.140000000000004a22.140000000000004,22.140000000000004 0 0 1 19.173802439787476,33.21Z" style="pointer-events: none; fill: rgb(39, 255, 0); fill-opacity: 1; stroke-width: 1; stroke: rgb(0, 0, 0); stroke-opacity: 1;"/></g><g class="slice"><path class="surface" d="M212.3,260.00000000000006l-19.173802439787476,11.069999999999997a22.140000000000004,22.140000000000004 0 0 1 19.173802439787476,-33.21Z" style="pointer-events: none; fill: rgb(255, 0, 0); fill-opacity: 1; stroke-width: 1; stroke: rgb(0, 0, 0); stroke-opacity: 1;"/></g><g class="slice"><path class="surface" d="M212.3,260.00000000000006l19.173802439787472,11.070000000000013a22.140000000000004,22.140000000000004 0 0 1 -38.347604879574945,-1.5987211554602254e-14Z" style="pointer-events: none; fill: rgb(98, 255, 0); fill-opacity: 1; stroke-width: 1; stroke: rgb(0, 0, 0); stroke-opacity: 1;"/></g></g><g class="trace" stroke-linejoin="round" style="opacity: 1;"><g class="slice"><path class="surface" d="M267.38,260.00000000000006l0,-22.140000000000004a22.140000000000004,22.140000000000004 0 0 1 2.7113680133122405e-15,44.28000000000001Z" style="pointer-events: none; fill: rgb(39, 0, 255); fill-opacity: 1; stroke-width: 1; stroke: rgb(0, 0, 0); stroke-opacity: 1;"/></g><g class="slice"><path class="surface" d="M267.38,260.00000000000006l-2.7113680133122405e-15,22.140000000000004a22.140000000000004,22.140000000000004 0 0 1 2.7113680133122405e-15,-44.28000000000001Z" style="pointer-events: none; fill: rgb(0, 255, 255); fill-opacity: 1; stroke-width: 1; stroke: rgb(0, 0, 0); stroke-opacity: 1;"/></g></g><g class="trace" stroke-linejoin="round" style="opacity: 1;"><g class="slice"><path class="surface" d="M322.46000000000004,260.00000000000006l0,-22.140000000000004a22.140000000000004,22.140000000000004 0 0 1 19.173802439787476,33.21Z" style="pointer-events: none; fill: rgb(98, 255, 0); fill-opacity: 1; stroke-width: 1; stroke: rgb(0, 0, 0); stroke-opacity: 1;"/></g><g class="slice"><path class="surface" d="M322.46000000000004,260.00000000000006l-19.173802439787476,11.069999999999997a22.140000000000004,22.140000000000004 0 0 1 19.173802439787476,-33.21Z" style="pointer-events: none; fill: rgb(98, 0, 255); fill-opacity: 1; stroke-width: 1; stroke: rgb(0, 0, 0); stroke-opacity: 1;"/></g><g class="slice"><path class="surface" d="M322.46000000000004,260.00000000000006l19.173802439787472,11.070000000000013a22.140000000000004,22.140000000000004 0 0 1 -38.347604879574945,-1.5987211554602254e-14Z" style="pointer-events: none; fill: rgb(255, 0, 235); fill-opacity: 1; stroke-width: 1; stroke: rgb(0, 0, 0); stroke-opacity: 1;"/></g></g><g class="trace" stroke-linejoin="round" style="opacity: 1;"><g class="slice"><path class="surface" d="M377.53999999999996,260.00000000000006l0,-22.13999999999999a22.13999999999999,22.13999999999999 0 0 1 19.173802439787465,33.20999999999998Z" style="pointer-events: none; fill: rgb(0, 255, 196); fill-opacity: 1; stroke-width: 1; stroke: rgb(0, 0, 0); stroke-opacity: 1;"/></g><g class="slice"><path class="surface" d="M377.53999999999996,260.00000000000006l-19.173802439787462,-11.069999999999997a22.13999999999999,22.13999999999999 0 0 1 19.173802439787462,-11.069999999999993Z" style="pointer-events: none; fill: rgb(0, 78, 255); fill-opacity: 1; stroke-width: 1; stroke: rgb(0, 0, 0); stroke-opacity: 1;"/></g><g class="slice"><path class="surface" d="M377.53999999999996,260.00000000000006l-19.173802439787465,11.06999999999999a22.13999999999999,22.13999999999999 0 0 1 3.552713678800501e-15,-22.139999999999986Z" style="pointer-events: none; fill: rgb(0, 255, 19); fill-opacity: 1; stroke-width: 1; stroke: rgb(0, 0, 0); stroke-opacity: 1;"/></g><g class="slice"><path class="surface" d="M377.53999999999996,260.00000000000006l-1.2543503119392621e-14,22.13999999999999a22.13999999999999,22.13999999999999 0 0 1 -19.17380243978745,-11.07Z" style="pointer-events: none; fill: rgb(215, 255, 0); fill-opacity: 1; stroke-width: 1; stroke: rgb(0, 0, 0); stroke-opacity: 1;"/></g><g class="slice"><path class="surface" d="M377.53999999999996,260.00000000000006l19.17380243978746,11.070000000000006a22.13999999999999,22.13999999999999 0 0 1 -19.173802439787472,11.069999999999984Z" style="pointer-events: none; fill: rgb(255, 0, 0); fill-opacity: 1; stroke-width: 1; stroke: rgb(0, 0, 0); stroke-opacity: 1;"/></g></g><g class="trace" stroke-linejoin="round" style="opacity: 1;"><g class="slice"><path class="surface" d="M432.62,260.00000000000006l0,-22.13999999999999a22.13999999999999,22.13999999999999 0 0 1 17.309749021842173,8.335935786847635Z" style="pointer-events: none; fill: rgb(0, 196, 255); fill-opacity: 1; stroke-width: 1; stroke: rgb(0, 0, 0); stroke-opacity: 1;"/></g><g class="slice"><path class="surface" d="M432.62,260.00000000000006l-17.309749021842173,-13.804064213152355a22.13999999999999,22.13999999999999 0 0 1 17.309749021842173,-8.335935786847635Z" style="pointer-events: none; fill: rgb(39, 0, 255); fill-opacity: 1; stroke-width: 1; stroke: rgb(0, 0, 0); stroke-opacity: 1;"/></g><g class="slice"><path class="surface" d="M432.62,260.00000000000006l-21.584903975705565,4.926613477792797a22.13999999999999,22.13999999999999 0 0 1 4.275154953863392,-18.73067769094515Z" style="pointer-events: none; fill: rgb(0, 137, 255); fill-opacity: 1; stroke-width: 1; stroke: rgb(0, 0, 0); stroke-opacity: 1;"/></g><g class="slice"><path class="surface" d="M432.62,260.00000000000006l-9.606185984062735,19.94745073535955a22.13999999999999,22.13999999999999 0 0 1 -11.97871799164283,-15.020837257566752Z" style="pointer-events: none; fill: rgb(0, 78, 255); fill-opacity: 1; stroke-width: 1; stroke: rgb(0, 0, 0); stroke-opacity: 1;"/></g><g class="slice"><path class="surface" d="M432.62,260.00000000000006l9.60618598406273,19.94745073535955a22.13999999999999,22.13999999999999 0 0 1 -19.212371968125467,0Z" style="pointer-events: none; fill: rgb(255, 0, 58); fill-opacity: 1; stroke-width: 1; stroke: rgb(0, 0, 0); stroke-opacity: 1;"/></g><g class="slice"><path class="surface" d="M432.62,260.00000000000006l21.584903975705565,4.926613477792802a22.13999999999999,22.13999999999999 0 0 1 -11.978717991642835,15.020837257566747Z" style="pointer-events: none; fill: rgb(255, 0, 0); fill-opacity: 1; stroke-width: 1; stroke: rgb(0, 0, 0); stroke-opacity: 1;"/></g><g class="slice"><path class="surface" d="M432.62,260.00000000000006l17.309749021842176,-13.804064213152351a22.13999999999999,22.13999999999999 0 0 1 4.275154953863389,18.730677690945154Z" style="pointer-events: none; fill: rgb(0, 255, 19); fill-opacity: 1; stroke-width: 1; stroke: rgb(0, 0, 0); stroke-opacity: 1;"/></g></g><g class="trace" stroke-linejoin="round" style="opacity: 1;"><g class="slice"><path class="surface" d="M487.70000000000005,260.00000000000006l0,-22.13999999999999a22.13999999999999,22.13999999999999 0 0 1 19.173802439787462,11.069999999999993Z" style="pointer-events: none; fill: rgb(0, 196, 255); fill-opacity: 1; stroke-width: 1; stroke: rgb(0, 0, 0); stroke-opacity: 1;"/></g><g class="slice"><path class="surface" d="M487.70000000000005,260.00000000000006l-19.173802439787462,-11.069999999999997a22.13999999999999,22.13999999999999 0 0 1 19.173802439787462,-11.069999999999993Z" style="pointer-events: none; fill: rgb(255, 0, 0); fill-opacity: 1; stroke-width: 1; stroke: rgb(0, 0, 0); stroke-opacity: 1;"/></g><g class="slice"><path class="surface" d="M487.70000000000005,260.00000000000006l-19.173802439787465,11.06999999999999a22.13999999999999,22.13999999999999 0 0 1 3.552713678800501e-15,-22.139999999999986Z" style="pointer-events: none; fill: rgb(0, 78, 255); fill-opacity: 1; stroke-width: 1; stroke: rgb(0, 0, 0); stroke-opacity: 1;"/></g><g class="slice"><path class="surface" d="M487.70000000000005,260.00000000000006l-1.2543503119392621e-14,22.13999999999999a22.13999999999999,22.13999999999999 0 0 1 -19.17380243978745,-11.07Z" style="pointer-events: none; fill: rgb(39, 0, 255); fill-opacity: 1; stroke-width: 1; stroke: rgb(0, 0, 0); stroke-opacity: 1;"/></g><g class="slice"><path class="surface" d="M487.70000000000005,260.00000000000006l19.17380243978746,11.070000000000006a22.13999999999999,22.13999999999999 0 0 1 -19.173802439787472,11.069999999999984Z" style="pointer-events: none; fill: rgb(0, 255, 255); fill-opacity: 1; stroke-width: 1; stroke: rgb(0, 0, 0); stroke-opacity: 1;"/></g><g class="slice"><path class="surface" d="M487.70000000000005,260.00000000000006l19.173802439787462,-11.069999999999997a22.13999999999999,22.13999999999999 0 0 1 -3.552713678800501e-15,22.14Z" style="pointer-events: none; fill: rgb(156, 0, 255); fill-opacity: 1; stroke-width: 1; stroke: rgb(0, 0, 0); stroke-opacity: 1;"/></g></g><g class="trace" stroke-linejoin="round" style="opacity: 1;"><g class="slice"><path class="surface" d="M542.78,260.00000000000006l0,-22.13999999999999a22.13999999999999,22.13999999999999 0 0 1 2.711368013312239e-15,44.27999999999998Z" style="pointer-events: none; fill: rgb(156, 255, 0); fill-opacity: 1; stroke-width: 1; stroke: rgb(0, 0, 0); stroke-opacity: 1;"/></g><g class="slice"><path class="surface" d="M542.78,260.00000000000006l-2.711368013312239e-15,22.13999999999999a22.13999999999999,22.13999999999999 0 0 1 2.711368013312239e-15,-44.27999999999998Z" style="pointer-events: none; fill: rgb(0, 255, 137); fill-opacity: 1; stroke-width: 1; stroke: rgb(0, 0, 0); stroke-opacity: 1;"/></g></g><g class="trace" stroke-linejoin="round" style="opacity: 1;"><g class="slice"><path class="surface" d="M597.8599999999999,260.00000000000006l0,-22.13999999999999a22.13999999999999,22.13999999999999 0 0 1 19.173802439787465,33.20999999999998Z" style="pointer-events: none; fill: rgb(0, 255, 196); fill-opacity: 1; stroke-width: 1; stroke: rgb(0, 0, 0); stroke-opacity: 1;"/></g><g class="slice"><path class="surface" d="M597.8599999999999,260.00000000000006l-19.173802439787465,11.06999999999999a22.13999999999999,22.13999999999999 0 0 1 19.173802439787465,-33.20999999999998Z" style="pointer-events: none; fill: rgb(156, 255, 0); fill-opacity: 1; stroke-width: 1; stroke: rgb(0, 0, 0); stroke-opacity: 1;"/></g><g class="slice"><path class="surface" d="M597.8599999999999,260.00000000000006l19.17380243978746,11.070000000000006a22.13999999999999,22.13999999999999 0 0 1 -38.347604879574924,-1.5987211554602254e-14Z" style="pointer-events: none; fill: rgb(0, 255, 19); fill-opacity: 1; stroke-width: 1; stroke: rgb(0, 0, 0); stroke-opacity: 1;"/></g></g><g class="trace" stroke-linejoin="round" style="opacity: 1;"><g class="slice"><path class="surface" d="M102.14,327.84000000000003l0,-22.14a22.14,22.14 0 0 1 21.91464672324385,25.29085051937053Z" style="pointer-events: none; fill: rgb(39, 255, 0); fill-opacity: 1; stroke-width: 1; stroke: rgb(0, 0, 0); stroke-opacity: 1;"/></g><g class="slice"><path class="surface" d="M102.14,327.84000000000003l-21.91464672324385,3.1508505193705303a22.14,22.14 0 0 1 21.91464672324385,-25.29085051937053Z" style="pointer-events: none; fill: rgb(0, 255, 196); fill-opacity: 1; stroke-width: 1; stroke: rgb(0, 0, 0); stroke-opacity: 1;"/></g><g class="slice"><path class="surface" d="M102.14,327.84000000000003l-16.73229557620328,14.49861664954861a22.14,22.14 0 0 1 -5.1823511470405705,-11.34776613017808Z" style="pointer-events: none; fill: rgb(0, 255, 19); fill-opacity: 1; stroke-width: 1; stroke: rgb(0, 0, 0); stroke-opacity: 1;"/></g><g class="slice"><path class="surface" d="M102.14,327.84000000000003l-6.237558808469261,21.24317443582497a22.14,22.14 0 0 1 -10.49473676773402,-6.744557786276358Z" style="pointer-events: none; fill: rgb(255, 0, 0); fill-opacity: 1; stroke-width: 1; stroke: rgb(0, 0, 0); stroke-opacity: 1;"/></g><g class="slice"><path class="surface" d="M102.14,327.84000000000003l6.237558808469238,21.243174435824976a22.14,22.14 0 0 1 -12.4751176169385,-7.105427357601002e-15Z" style="pointer-events: none; fill: rgb(255, 0, 176); fill-opacity: 1; stroke-width: 1; stroke: rgb(0, 0, 0); stroke-opacity: 1;"/></g><g class="slice"><path class="surface" d="M102.14,327.84000000000003l16.732295576203263,14.49861664954863a22.14,22.14 0 0 1 -10.494736767734025,6.744557786276346Z" style="pointer-events: none; fill: rgb(255, 0, 117); fill-opacity: 1; stroke-width: 1; stroke: rgb(0, 0, 0); stroke-opacity: 1;"/></g><g class="slice"><path class="surface" d="M102.14,327.84000000000003l21.914646723243848,3.1508505193705547a22.14,22.14 0 0 1 -5.182351147040585,11.347766130178076Z" style="pointer-events: none; fill: rgb(0, 78, 255); fill-opacity: 1; stroke-width: 1; stroke: rgb(0, 0, 0); stroke-opacity: 1;"/></g></g><g class="trace" stroke-linejoin="round" style="opacity: 1;"><g class="slice"><path class="surface" d="M157.22000000000003,327.84000000000003l0,-22.139999999999997a22.139999999999997,22.139999999999997 0 0 1 22.139999999999997,22.139999999999997Z" style="pointer-events: none; fill: rgb(255, 235, 0); fill-opacity: 1; stroke-width: 1; stroke: rgb(0, 0, 0); stroke-opacity: 1;"/></g><g class="slice"><path class="surface" d="M157.22000000000003,327.84000000000003l-22.139999999999997,-1.3556840066561198e-15a22.139999999999997,22.139999999999997 0 0 1 22.139999999999997,-22.139999999999997Z" style="pointer-events: none; fill: rgb(98, 0, 255); fill-opacity: 1; stroke-width: 1; stroke: rgb(0, 0, 0); stroke-opacity: 1;"/></g><g class="slice"><path class="surface" d="M157.22000000000003,327.84000000000003l-2.7113680133122397e-15,22.139999999999997a22.139999999999997,22.139999999999997 0 0 1 -22.139999999999993,-22.139999999999997Z" style="pointer-events: none; fill: rgb(255, 0, 0); fill-opacity: 1; stroke-width: 1; stroke: rgb(0, 0, 0); stroke-opacity: 1;"/></g><g class="slice"><path class="surface" d="M157.22000000000003,327.84000000000003l22.139999999999997,4.067052019968359e-15a22.139999999999997,22.139999999999997 0 0 1 -22.14,22.139999999999993Z" style="pointer-events: none; fill: rgb(98, 255, 0); fill-opacity: 1; stroke-width: 1; stroke: rgb(0, 0, 0); stroke-opacity: 1;"/></g></g><g class="trace" stroke-linejoin="round" style="opacity: 1;"><g class="slice"><path class="surface" d="M212.3,327.84000000000003l0,-22.140000000000004a22.140000000000004,22.140000000000004 0 0 1 2.7113680133122405e-15,44.28000000000001Z" style="pointer-events: none; fill: rgb(98, 255, 0); fill-opacity: 1; stroke-width: 1; stroke: rgb(0, 0, 0); stroke-opacity: 1;"/></g><g class="slice"><path class="surface" d="M212.3,327.84000000000003l-2.7113680133122405e-15,22.140000000000004a22.140000000000004,22.140000000000004 0 0 1 2.7113680133122405e-15,-44.28000000000001Z" style="pointer-events: none; fill: rgb(0, 255, 196); fill-opacity: 1; stroke-width: 1; stroke: rgb(0, 0, 0); stroke-opacity: 1;"/></g></g><g class="trace" stroke-linejoin="round" style="opacity: 1;"><g class="slice"><path class="surface" d="M267.38,327.84000000000003l0,-22.140000000000004a22.140000000000004,22.140000000000004 0 0 1 2.7113680133122405e-15,44.28000000000001Z" style="pointer-events: none; fill: rgb(255, 0, 176); fill-opacity: 1; stroke-width: 1; stroke: rgb(0, 0, 0); stroke-opacity: 1;"/></g><g class="slice"><path class="surface" d="M267.38,327.84000000000003l-2.7113680133122405e-15,22.140000000000004a22.140000000000004,22.140000000000004 0 0 1 2.7113680133122405e-15,-44.28000000000001Z" style="pointer-events: none; fill: rgb(0, 255, 196); fill-opacity: 1; stroke-width: 1; stroke: rgb(0, 0, 0); stroke-opacity: 1;"/></g></g><g class="trace" stroke-linejoin="round" style="opacity: 1;"><g class="slice"><path class="surface" d="M322.46000000000004,327.84000000000003l0,-22.140000000000004a22.140000000000004,22.140000000000004 0 0 1 22.140000000000004,22.140000000000004Z" style="pointer-events: none; fill: rgb(255, 235, 0); fill-opacity: 1; stroke-width: 1; stroke: rgb(0, 0, 0); stroke-opacity: 1;"/></g><g class="slice"><path class="surface" d="M322.46000000000004,327.84000000000003l-22.140000000000004,-1.3556840066561202e-15a22.140000000000004,22.140000000000004 0 0 1 22.140000000000004,-22.140000000000004Z" style="pointer-events: none; fill: rgb(39, 0, 255); fill-opacity: 1; stroke-width: 1; stroke: rgb(0, 0, 0); stroke-opacity: 1;"/></g><g class="slice"><path class="surface" d="M322.46000000000004,327.84000000000003l-2.7113680133122405e-15,22.140000000000004a22.140000000000004,22.140000000000004 0 0 1 -22.14,-22.140000000000004Z" style="pointer-events: none; fill: rgb(98, 255, 0); fill-opacity: 1; stroke-width: 1; stroke: rgb(0, 0, 0); stroke-opacity: 1;"/></g><g class="slice"><path class="surface" d="M322.46000000000004,327.84000000000003l22.140000000000004,4.0670520199683605e-15a22.140000000000004,22.140000000000004 0 0 1 -22.140000000000008,22.14Z" style="pointer-events: none; fill: rgb(98, 0, 255); fill-opacity: 1; stroke-width: 1; stroke: rgb(0, 0, 0); stroke-opacity: 1;"/></g></g><g class="trace" stroke-linejoin="round" style="opacity: 1;"><g class="slice"><path class="surface" d="M377.53999999999996,327.84000000000003l0,-22.13999999999999a22.13999999999999,22.13999999999999 0 0 1 19.173802439787465,33.20999999999998Z" style="pointer-events: none; fill: rgb(98, 255, 0); fill-opacity: 1; stroke-width: 1; stroke: rgb(0, 0, 0); stroke-opacity: 1;"/></g><g class="slice"><path class="surface" d="M377.53999999999996,327.84000000000003l-19.173802439787465,11.06999999999999a22.13999999999999,22.13999999999999 0 0 1 19.173802439787465,-33.20999999999998Z" style="pointer-events: none; fill: rgb(98, 0, 255); fill-opacity: 1; stroke-width: 1; stroke: rgb(0, 0, 0); stroke-opacity: 1;"/></g><g class="slice"><path class="surface" d="M377.53999999999996,327.84000000000003l19.17380243978746,11.070000000000006a22.13999999999999,22.13999999999999 0 0 1 -38.347604879574924,-1.5987211554602254e-14Z" style="pointer-events: none; fill: rgb(255, 0, 235); fill-opacity: 1; stroke-width: 1; stroke: rgb(0, 0, 0); stroke-opacity: 1;"/></g></g><g class="trace" stroke-linejoin="round" style="opacity: 1;"><g class="slice"><path class="surface" d="M432.62,327.84000000000003l0,-22.13999999999999a22.13999999999999,22.13999999999999 0 0 1 21.584903975705565,27.066613477792785Z" style="pointer-events: none; fill: rgb(255, 0, 235); fill-opacity: 1; stroke-width: 1; stroke: rgb(0, 0, 0); stroke-opacity: 1;"/></g><g class="slice"><path class="surface" d="M432.62,327.84000000000003l-21.584903975705565,4.926613477792797a22.13999999999999,22.13999999999999 0 0 1 21.584903975705565,-27.066613477792785Z" style="pointer-events: none; fill: rgb(0, 255, 255); fill-opacity: 1; stroke-width: 1; stroke: rgb(0, 0, 0); stroke-opacity: 1;"/></g><g class="slice"><path class="surface" d="M432.62,327.84000000000003l-9.606185984062735,19.94745073535955a22.13999999999999,22.13999999999999 0 0 1 -11.97871799164283,-15.020837257566752Z" style="pointer-events: none; fill: rgb(215, 255, 0); fill-opacity: 1; stroke-width: 1; stroke: rgb(0, 0, 0); stroke-opacity: 1;"/></g><g class="slice"><path class="surface" d="M432.62,327.84000000000003l9.60618598406273,19.94745073535955a22.13999999999999,22.13999999999999 0 0 1 -19.212371968125467,0Z" style="pointer-events: none; fill: rgb(39, 0, 255); fill-opacity: 1; stroke-width: 1; stroke: rgb(0, 0, 0); stroke-opacity: 1;"/></g><g class="slice"><path class="surface" d="M432.62,327.84000000000003l21.584903975705565,4.926613477792802a22.13999999999999,22.13999999999999 0 0 1 -11.978717991642835,15.020837257566747Z" style="pointer-events: none; fill: rgb(156, 0, 255); fill-opacity: 1; stroke-width: 1; stroke: rgb(0, 0, 0); stroke-opacity: 1;"/></g></g><g class="trace" stroke-linejoin="round" style="opacity: 1;"><g class="slice"><path class="surface" d="M487.70000000000005,305.70000000000005a22.13999999999999,22.13999999999999 0 1 1 2.711368013312239e-15,44.27999999999998a22.13999999999999,22.13999999999999 0 1 1 -2.711368013312239e-15,-44.27999999999998Z" style="pointer-events: none; fill: rgb(255, 0, 0); fill-opacity: 1; stroke-width: 1; stroke: rgb(0, 0, 0); stroke-opacity: 1;"/></g></g><g class="trace" stroke-linejoin="round" style="opacity: 1;"><g class="slice"><path class="surface" d="M542.78,327.84000000000003l0,-22.13999999999999a22.13999999999999,22.13999999999999 0 0 1 22.13999999999999,22.13999999999999Z" style="pointer-events: none; fill: rgb(215, 0, 255); fill-opacity: 1; stroke-width: 1; stroke: rgb(0, 0, 0); stroke-opacity: 1;"/></g><g class="slice"><path class="surface" d="M542.78,327.84000000000003l-22.13999999999999,-1.3556840066561194e-15a22.13999999999999,22.13999999999999 0 0 1 22.13999999999999,-22.13999999999999Z" style="pointer-events: none; fill: rgb(0, 137, 255); fill-opacity: 1; stroke-width: 1; stroke: rgb(0, 0, 0); stroke-opacity: 1;"/></g><g class="slice"><path class="surface" d="M542.78,327.84000000000003l-2.711368013312239e-15,22.13999999999999a22.13999999999999,22.13999999999999 0 0 1 -22.139999999999986,-22.13999999999999Z" style="pointer-events: none; fill: rgb(39, 0, 255); fill-opacity: 1; stroke-width: 1; stroke: rgb(0, 0, 0); stroke-opacity: 1;"/></g><g class="slice"><path class="surface" d="M542.78,327.84000000000003l22.13999999999999,4.067052019968358e-15a22.13999999999999,22.13999999999999 0 0 1 -22.139999999999993,22.139999999999986Z" style="pointer-events: none; fill: rgb(0, 255, 137); fill-opacity: 1; stroke-width: 1; stroke: rgb(0, 0, 0); stroke-opacity: 1;"/></g></g><g class="trace" stroke-linejoin="round" style="opacity: 1;"><g class="slice"><path class="surface" d="M597.8599999999999,327.84000000000003l0,-22.13999999999999a22.13999999999999,22.13999999999999 0 0 1 22.13999999999999,22.13999999999999Z" style="pointer-events: none; fill: rgb(255, 0, 176); fill-opacity: 1; stroke-width: 1; stroke: rgb(0, 0, 0); stroke-opacity: 1;"/></g><g class="slice"><path class="surface" d="M597.8599999999999,327.84000000000003l-22.13999999999999,-1.3556840066561194e-15a22.13999999999999,22.13999999999999 0 0 1 22.13999999999999,-22.13999999999999Z" style="pointer-events: none; fill: rgb(255, 0, 0); fill-opacity: 1; stroke-width: 1; stroke: rgb(0, 0, 0); stroke-opacity: 1;"/></g><g class="slice"><path class="surface" d="M597.8599999999999,327.84000000000003l-2.711368013312239e-15,22.13999999999999a22.13999999999999,22.13999999999999 0 0 1 -22.139999999999986,-22.13999999999999Z" style="pointer-events: none; fill: rgb(0, 255, 19); fill-opacity: 1; stroke-width: 1; stroke: rgb(0, 0, 0); stroke-opacity: 1;"/></g><g class="slice"><path class="surface" d="M597.8599999999999,327.84000000000003l22.13999999999999,4.067052019968358e-15a22.13999999999999,22.13999999999999 0 0 1 -22.139999999999993,22.139999999999986Z" style="pointer-events: none; fill: rgb(0, 78, 255); fill-opacity: 1; stroke-width: 1; stroke: rgb(0, 0, 0); stroke-opacity: 1;"/></g></g><g class="trace" stroke-linejoin="round" style="opacity: 1;"><g class="slice"><path class="surface" d="M102.14,395.68l0,-22.14a22.14,22.14 0 0 1 13.013565485755358,40.05163625546133Z" style="pointer-events: none; fill: rgb(0, 137, 255); fill-opacity: 1; stroke-width: 1; stroke: rgb(0, 0, 0); stroke-opacity: 1;"/></g><g class="slice"><path class="surface" d="M102.14,395.68l-21.0563912707747,-6.841636255461337a22.14,22.14 0 0 1 21.0563912707747,-15.298363744538664Z" style="pointer-events: none; fill: rgb(255, 0, 117); fill-opacity: 1; stroke-width: 1; stroke: rgb(0, 0, 0); stroke-opacity: 1;"/></g><g class="slice"><path class="surface" d="M102.14,395.68l-13.013565485755358,17.911636255461335a22.14,22.14 0 0 1 -8.042825785019343,-24.75327251092267Z" style="pointer-events: none; fill: rgb(98, 0, 255); fill-opacity: 1; stroke-width: 1; stroke: rgb(0, 0, 0); stroke-opacity: 1;"/></g><g class="slice"><path class="surface" d="M102.14,395.68l13.013565485755354,17.911636255461335a22.14,22.14 0 0 1 -26.02713097151071,0Z" style="pointer-events: none; fill: rgb(39, 0, 255); fill-opacity: 1; stroke-width: 1; stroke: rgb(0, 0, 0); stroke-opacity: 1;"/></g></g><g class="trace" stroke-linejoin="round" style="opacity: 1;"><g class="slice"><path class="surface" d="M157.22000000000003,395.68l0,-22.139999999999997a22.139999999999997,22.139999999999997 0 0 1 19.17380243978747,11.069999999999997Z" style="pointer-events: none; fill: rgb(255, 235, 0); fill-opacity: 1; stroke-width: 1; stroke: rgb(0, 0, 0); stroke-opacity: 1;"/></g><g class="slice"><path class="surface" d="M157.22000000000003,395.68l-19.17380243978747,-11.07a22.139999999999997,22.139999999999997 0 0 1 19.17380243978747,-11.069999999999997Z" style="pointer-events: none; fill: rgb(39, 0, 255); fill-opacity: 1; stroke-width: 1; stroke: rgb(0, 0, 0); stroke-opacity: 1;"/></g><g class="slice"><path class="surface" d="M157.22000000000003,395.68l-19.17380243978747,11.069999999999993a22.139999999999997,22.139999999999997 0 0 1 0,-22.139999999999993Z" style="pointer-events: none; fill: rgb(0, 255, 255); fill-opacity: 1; stroke-width: 1; stroke: rgb(0, 0, 0); stroke-opacity: 1;"/></g><g class="slice"><path class="surface" d="M157.22000000000003,395.68l-1.2543503119392626e-14,22.139999999999997a22.139999999999997,22.139999999999997 0 0 1 -19.173802439787455,-11.070000000000004Z" style="pointer-events: none; fill: rgb(98, 255, 0); fill-opacity: 1; stroke-width: 1; stroke: rgb(0, 0, 0); stroke-opacity: 1;"/></g><g class="slice"><path class="surface" d="M157.22000000000003,395.68l19.173802439787465,11.07000000000001a22.139999999999997,22.139999999999997 0 0 1 -19.17380243978748,11.069999999999988Z" style="pointer-events: none; fill: rgb(255, 0, 235); fill-opacity: 1; stroke-width: 1; stroke: rgb(0, 0, 0); stroke-opacity: 1;"/></g><g class="slice"><path class="surface" d="M157.22000000000003,395.68l19.17380243978747,-11.07a22.139999999999997,22.139999999999997 0 0 1 -3.552713678800501e-15,22.140000000000008Z" style="pointer-events: none; fill: rgb(0, 255, 19); fill-opacity: 1; stroke-width: 1; stroke: rgb(0, 0, 0); stroke-opacity: 1;"/></g></g><g class="trace" stroke-linejoin="round" style="opacity: 1;"><g class="slice"><path class="surface" d="M212.3,395.68l0,-22.140000000000004a22.140000000000004,22.140000000000004 0 0 1 21.58490397570558,27.066613477792806Z" style="pointer-events: none; fill: rgb(255, 0, 0); fill-opacity: 1; stroke-width: 1; stroke: rgb(0, 0, 0); stroke-opacity: 1;"/></g><g class="slice"><path class="surface" d="M212.3,395.68l-17.309749021842183,-13.804064213152364a22.140000000000004,22.140000000000004 0 0 1 17.309749021842183,-8.33593578684764Z" style="pointer-events: none; fill: rgb(255, 0, 58); fill-opacity: 1; stroke-width: 1; stroke: rgb(0, 0, 0); stroke-opacity: 1;"/></g><g class="slice"><path class="surface" d="M212.3,395.68l-21.58490397570558,4.926613477792801a22.140000000000004,22.140000000000004 0 0 1 4.275154953863396,-18.730677690945164Z" style="pointer-events: none; fill: rgb(39, 255, 0); fill-opacity: 1; stroke-width: 1; stroke: rgb(0, 0, 0); stroke-opacity: 1;"/></g><g class="slice"><path class="surface" d="M212.3,395.68l-9.60618598406274,19.94745073535956a22.140000000000004,22.140000000000004 0 0 1 -11.978717991642839,-15.02083725756676Z" style="pointer-events: none; fill: rgb(98, 255, 0); fill-opacity: 1; stroke-width: 1; stroke: rgb(0, 0, 0); stroke-opacity: 1;"/></g><g class="slice"><path class="surface" d="M212.3,395.68l9.606185984062735,19.947450735359563a22.140000000000004,22.140000000000004 0 0 1 -19.212371968125474,-3.552713678800501e-15Z" style="pointer-events: none; fill: rgb(0, 255, 19); fill-opacity: 1; stroke-width: 1; stroke: rgb(0, 0, 0); stroke-opacity: 1;"/></g><g class="slice"><path class="surface" d="M212.3,395.68l21.58490397570558,4.926613477792806a22.140000000000004,22.140000000000004 0 0 1 -11.978717991642844,15.020837257566757Z" style="pointer-events: none; fill: rgb(255, 0, 176); fill-opacity: 1; stroke-width: 1; stroke: rgb(0, 0, 0); stroke-opacity: 1;"/></g></g><g class="trace" stroke-linejoin="round" style="opacity: 1;"><g class="slice"><path class="surface" d="M267.38,395.68l0,-22.140000000000004a22.140000000000004,22.140000000000004 0 0 1 19.173802439787476,33.21Z" style="pointer-events: none; fill: rgb(98, 0, 255); fill-opacity: 1; stroke-width: 1; stroke: rgb(0, 0, 0); stroke-opacity: 1;"/></g><g class="slice"><path class="surface" d="M267.38,395.68l-19.173802439787472,-11.070000000000004a22.140000000000004,22.140000000000004 0 0 1 19.173802439787472,-11.07Z" style="pointer-events: none; fill: rgb(98, 255, 0); fill-opacity: 1; stroke-width: 1; stroke: rgb(0, 0, 0); stroke-opacity: 1;"/></g><g class="slice"><path class="surface" d="M267.38,395.68l-19.173802439787476,11.069999999999997a22.140000000000004,22.140000000000004 0 0 1 3.552713678800501e-15,-22.14Z" style="pointer-events: none; fill: rgb(0, 255, 196); fill-opacity: 1; stroke-width: 1; stroke: rgb(0, 0, 0); stroke-opacity: 1;"/></g><g class="slice"><path class="surface" d="M267.38,395.68l-1.2543503119392629e-14,22.140000000000004a22.140000000000004,22.140000000000004 0 0 1 -19.173802439787462,-11.070000000000007Z" style="pointer-events: none; fill: rgb(156, 255, 0); fill-opacity: 1; stroke-width: 1; stroke: rgb(0, 0, 0); stroke-opacity: 1;"/></g><g class="slice"><path class="surface" d="M267.38,395.68l19.173802439787472,11.070000000000013a22.140000000000004,22.140000000000004 0 0 1 -19.173802439787487,11.069999999999991Z" style="pointer-events: none; fill: rgb(156, 0, 255); fill-opacity: 1; stroke-width: 1; stroke: rgb(0, 0, 0); stroke-opacity: 1;"/></g></g><g class="trace" stroke-linejoin="round" style="opacity: 1;"><g class="slice"><path class="surface" d="M322.46000000000004,395.68l0,-22.140000000000004a22.140000000000004,22.140000000000004 0 0 1 19.173802439787476,33.21Z" style="pointer-events: none; fill: rgb(255, 0, 176); fill-opacity: 1; stroke-width: 1; stroke: rgb(0, 0, 0); stroke-opacity: 1;"/></g><g class="slice"><path class="surface" d="M322.46000000000004,395.68l-19.173802439787476,11.069999999999997a22.140000000000004,22.140000000000004 0 0 1 19.173802439787476,-33.21Z" style="pointer-events: none; fill: rgb(0, 255, 19); fill-opacity: 1; stroke-width: 1; stroke: rgb(0, 0, 0); stroke-opacity: 1;"/></g><g class="slice"><path class="surface" d="M322.46000000000004,395.68l19.173802439787472,11.070000000000013a22.140000000000004,22.140000000000004 0 0 1 -38.347604879574945,-1.5987211554602254e-14Z" style="pointer-events: none; fill: rgb(255, 117, 0); fill-opacity: 1; stroke-width: 1; stroke: rgb(0, 0, 0); stroke-opacity: 1;"/></g></g></g><g class="iciclelayer"/><g class="treemaplayer"/><g class="sunburstlayer"/><g class="glimages"/><defs id="topdefs-d64d64"><g class="clips"/></defs><g class="layer-above"><g class="imagelayer"/><g class="shapelayer"/></g><g class="infolayer"><g class="g-gtitle"/></g></svg>